#!OML:ASF H:\Dans Jumps\Project 1\Capture day 1\Session 1\subject.ASF
:FULLY-SPECIFIED
:DEGREES
348
root 0.721147 17.415 6.42104 6.50971 -1.11268 -2.63442
lowerback -1.33811 -0.325246 -0.296356
upperback 0.533005 -0.450615 1.78335
thorax 1.31273 -0.235623 1.98297
lowerneck -12.7451 -0.202322 -1.15557
upperneck 30.9348 -0.559734 1.71447
head 12.3233 -0.171294 0.771093
rclavicle 6.18717e-015 2.0276e-014
rhumerus -23.09 -14.6665 -79.4301
rradius 23.2527
rwrist 46.8408
rhand -25.3344 -27.5801
rfingers 7.12502
rthumb 1.18858 -57.5566
lclavicle 6.18717e-015 2.0276e-014
lhumerus -25.5842 -0.930462 85.8363
lradius 15.9306
lwrist 1.23151
lhand -26.1224 -6.87512
lfingers 7.12502
lthumb 0.427573 23.1042
rfemur -16.7724 -0.422388 20.39
rtibia 29.6037
rfoot -17.0038 -2.06367
rtoes 12.3813
lfemur -16.8032 9.69295 -17.9938
ltibia 29.5197
lfoot -15.1417 6.34082
ltoes -4.2533
349
root 0.716566 17.4201 6.43498 6.71168 -1.19018 -2.58552
lowerback -1.24416 -0.303714 -0.415751
upperback 0.58627 -0.419385 1.74559
thorax 1.31404 -0.221165 2.01239
lowerneck -12.7955 -0.210521 -1.13558
upperneck 30.7327 -0.590606 1.76779
head 12.2525 -0.175862 0.781843
rclavicle -6.32384e-015 1.41137e-014
rhumerus -23.5973 -16.9846 -78.6335
rradius 22.0634
rwrist 48.9926
rhand -25.1827 -27.5722
rfingers 7.12502
rthumb 1.33516 -57.5478
lclavicle -6.32384e-015 1.41137e-014
lhumerus -25.6022 1.75003 84.9242
lradius 14.7399
lwrist -1.42275
lhand -26.1019 -6.86062
lfingers 7.12502
lthumb 0.447302 23.1187
rfemur -16.9613 -0.43586 20.346
rtibia 29.6015
rfoot -16.9804 -1.9448
rtoes 12.413
lfemur -16.9432 9.7663 -18.0562
ltibia 29.4676
lfoot -15.125 6.26854
ltoes -4.10921
350
root 0.711643 17.4258 6.45095 6.90273 -1.2636 -2.51357
lowerback -1.18162 -0.283868 -0.54608
upperback 0.635929 -0.390288 1.69316
thorax 1.32924 -0.207903 2.03266
lowerneck -12.8257 -0.221133 -1.11569
upperneck 30.553 -0.625276 1.82126
head 12.187 -0.182296 0.792238
rclavicle -8.57259e-015 1.03368e-014
rhumerus -24.2222 -19.5103 -77.703
rradius 20.9251
rwrist 51.3434
rhand -25.0293 -27.5532
rfingers 7.12502
rthumb 1.48323 -57.5278
lclavicle -8.57259e-015 1.03368e-014
lhumerus -25.7398 4.56538 83.8917
lradius 13.6795
lwrist -4.284
lhand -26.0805 -6.84092
lfingers 7.12502
lthumb 0.468005 23.1383
rfemur -17.1192 -0.458521 20.2817
rtibia 29.5772
rfoot -16.9596 -1.84212
rtoes 12.4238
lfemur -17.041 9.87338 -18.1394
ltibia 29.3672
lfoot -15.1069 6.15468
ltoes -4.01164
351
root 0.70669 17.4323 6.46894 7.0871 -1.32784 -2.43747
lowerback -1.1573 -0.267907 -0.665616
upperback 0.683418 -0.366625 1.63423
thorax 1.36371 -0.197396 2.03988
lowerneck -12.8403 -0.231499 -1.09936
upperneck 30.3964 -0.657558 1.87045
head 12.1277 -0.188766 0.802097
rclavicle -4.31114e-015 1.00386e-014
rhumerus -24.9865 -22.1347 -76.6414
rradius 19.877
rwrist 53.7775
rhand -24.8979 -27.5328
rfingers 7.12502
rthumb 1.61014 -57.5065
lclavicle -4.31114e-015 1.00386e-014
lhumerus -26.0163 7.36604 82.7924
lradius 12.7805
lwrist -7.17567
lhand -26.1185 -6.84013
lfingers 7.12502
lthumb 0.431322 23.1392
rfemur -17.2427 -0.490212 20.2173
rtibia 29.5175
rfoot -16.9386 -1.75881
rtoes 12.4075
lfemur -17.1012 9.99778 -18.2255
ltibia 29.2175
lfoot -15.0817 6.01716
ltoes -3.9592
